<svg width="216" height="216" xmlns="http://www.w3.org/2000/svg" xmlns:xlink="http://www.w3.org/1999/xlink" version="1.1">
  <defs>
    <symbol id="one" viewBox="0 0 27 27" width="54" height="54">
      <path fill="#b02222" d="M17,4h1v14h-7v2h-1v-1h-1v-1h-1v-1h1v-1h1v-1h1v2h6z"/>
      <path fill="#000000" d="M5,5h11v1h-2v7h2v1h-2v2h-1v-2h-7v7h7v-2h1v2h7v-7h-2v-1h2v-7h-2v-1h3v17h-17v-17M6,6v7h7v-7z"/>
      <path fill="#2a1e49" d="M6,6h7v7h-7z"/>
    </symbol>
    <symbol id="wall" viewBox="0 0 27 27" width="54" height="54">
      <path fill="#000000" d="M5,5h17v17h-17v-11h1v2h7v-2h1v2h7v-7h-7v2h-1v-2h-7v2h-1v-3M6,14v7h7v-7h-7M14,14v7h7v-7z"/>
      <path fill="#b02222" d="M16,7h1v1h1v1h1v1h-1v1h-1v1h-1v-2h-12v-1h12z"/>
      <path fill="#2a1e49" d="M6,14h7v7h-7v-7M14,14h7v7h-7z"/>
    </symbol>
    <symbol id="three" viewBox="0 0 27 27" width="54" height="54">
      <path fill="#b02222" d="M9,0h1v1h1v1h1v1h-2v7h-6v-1h5v-6h-2v-1h1v-1h1z"/>
      <path fill="#000000" d="M5,5h3v1h-2v2h-1v-3M11,5h11v17h-17v-11h1v2h7v-7h-2v-1M14,6v7h7v-7h-7M6,14v7h7v-7h-7M14,14v7h7v-7z"/>
      <path fill="#2a1e49" d="M14,6h7v7h-7v-7M6,14h7v7h-7v-7M14,14h7v7h-7z"/>
    </symbol>
    <symbol id="turn" viewBox="0 0 27 27" width="54" height="54">
      <path fill="#b02222" d="M17,4h1v5h6v-2h1v1h1v1h1v1h-1v1h-1v1h-1v-2h-7v-6M2,15h1v2h7v6h-1v-5h-6v2h-1v-1h-1v-1h-1v-1h1v-1h1z"/>
      <path fill="#000000" d="M5,5h11v1h-2v7h7v-2h1v11h-11v-1h2v-7h-7v2h-1v-11M19,5h3v3h-1v-2h-2v-1M6,6v7h7v-7h-7M14,14v7h7v-7h-7M5,19h1v2h2v1h-3z"/>
      <path fill="#2a1e49" d="M6,6h7v7h-7v-7M14,14h7v7h-7z"/>
    </symbol>
  </defs>

  <use xlink:href="#one"/>
  <use xlink:href="#one" transform="translate(108) rotate(90)"/>
  <use xlink:href="#one" transform="translate(108, 54) rotate(-90)"/>
  <use xlink:href="#one" transform="translate(216, 54) rotate(180)"/>

  <use xlink:href="#three" transform="translate(0, 54)"/>
  <use xlink:href="#three" transform="translate(108, 54) rotate(90)"/>
  <use xlink:href="#three" transform="translate(108, 108) rotate(-90)"/>
  <use xlink:href="#three" transform="translate(216, 108) rotate(180)"/>

  <use xlink:href="#wall" transform="translate(0, 108)"/>
  <use xlink:href="#wall" transform="translate(108, 162) rotate(180)"/>
  <use xlink:href="#wall" transform="translate(108, 162) rotate(-90)"/>
  <use xlink:href="#wall" transform="translate(216, 108) rotate(90)"/>

  <use xlink:href="#turn" transform="translate(54, 162)"/>
  <use xlink:href="#turn" transform="translate(162, 162) rotate(90)"/>
</svg>
