<svg width="216" height="216" xmlns="http://www.w3.org/2000/svg" xmlns:xlink="http://www.w3.org/1999/xlink" version="1.1">
  <use x="27" y="27" width="54" height="54" xlink:href="n-big.svg#pixel" />
  <use x="81" y="27" width="54" height="54" xlink:href="n-big.svg#pixel" />
  <use x="135" y="27" width="54" height="54" xlink:href="n-big.svg#pixel" />
  <use x="135" y="81" width="54" height="54" xlink:href="n-big.svg#pixel" />
  <use x="135" y="135" width="54" height="54" xlink:href="n-big.svg#pixel" />
  <use x="81" y="135" width="54" height="54" xlink:href="n-big.svg#pixel" />
  <use x="27" y="135" width="54" height="54" xlink:href="n-big.svg#pixel" />
  <use x="27" y="81" width="54" height="54" xlink:href="n-big.svg#pixel" />

  <use xlink:href="moves.svg#move0001" width="54" height="54" y="0" x="0"/>
  <use xlink:href="moves.svg#move0011" width="54" height="54" y="0" x="54"/>
  <use xlink:href="moves.svg#move0011" width="54" height="54" y="0" x="108"/>
  <use xlink:href="moves.svg#move0010" width="54" height="54" y="0" x="162"/>
  <use xlink:href="moves.svg#move1010" width="54" height="54" y="54" x="162"/>
  <use xlink:href="moves.svg#move1010" width="54" height="54" y="108" x="162"/>
  <use xlink:href="moves.svg#move1000" width="54" height="54" y="162" x="162"/>
  <use xlink:href="moves.svg#move1100" width="54" height="54" y="162" x="108"/>
  <use xlink:href="moves.svg#move1100" width="54" height="54" y="162" x="54"/>
  <use xlink:href="moves.svg#move0100" width="54" height="54" y="162" x="0"/>
  <use xlink:href="moves.svg#move0101" width="54" height="54" y="108" x="0"/>
  <use xlink:href="moves.svg#move0101" width="54" height="54" y="54" x="0"/>

  <use xlink:href="moves.svg#move1110" width="54" height="54" y="54" x="54"/>
  <use xlink:href="moves.svg#move1011" width="54" height="54" y="108" x="54"/>
  <use xlink:href="moves.svg#move0111" width="54" height="54" y="108" x="108"/>
  <use xlink:href="moves.svg#move1101" width="54" height="54" y="54" x="108"/>

</svg>
