<svg width="216" height="216" xmlns="http://www.w3.org/2000/svg" xmlns:xlink="http://www.w3.org/1999/xlink" version="1.1">
  <defs>
    <symbol id="move1000" viewBox="0 0 27 27" >
      <path fill="#ff0219" d="M17,4h1v14h-7v2h-1v-1h-1v-1h-1v-1h1v-1h1v-1h1v2h6z"/>
      <path fill="#000000" d="M5,5h11v1h-2v7h2v1h-2v2h-1v-2h-7v7h7v-2h1v2h7v-7h-2v-1h2v-7h-2v-1h3v17h-17v-17M6,6v7h7v-7z"/>
      <path fill="#777777" d="M6,6h7v7h-7z"/>
    </symbol>

    <symbol id="move0100" viewBox="0 0 27 27">
      <use width="27" height="27" xlink:href="#move1000" transform="rotate(90, 13.5, 13.5)"/>
    </symbol>

    <symbol id="move0010" viewBox="0 0 27 27">
      <use width="27" height="27" xlink:href="#move1000" transform="rotate(-90, 13.5, 13.5)"/>
    </symbol>

    <symbol id="move0001" viewBox="0 0 27 27">
      <use width="27" height="27" xlink:href="#move1000" transform="rotate(180, 13.5, 13.5)"/>
    </symbol>

    <symbol id="move0111" viewBox="0 0 27 27" >
      <path fill="#ff0219" d="M9,0h1v1h1v1h1v1h-2v7h-6v-1h5v-6h-2v-1h1v-1h1z"/>
      <path fill="#000000" d="M5,5h3v1h-2v2h-1v-3M11,5h11v17h-17v-11h1v2h7v-7h-2v-1M14,6v7h7v-7h-7M6,14v7h7v-7h-7M14,14v7h7v-7z"/>
      <path fill="#777777" d="M14,6h7v7h-7v-7M6,14h7v7h-7v-7M14,14h7v7h-7z"/>
    </symbol>

    <symbol id="move1011" viewBox="0 0 27 27">
      <use width="27" height="27" xlink:href="#move0111" transform="rotate(90, 13.5, 13.5)"/>
    </symbol>

    <symbol id="move1101" viewBox="0 0 27 27">
      <use width="27" height="27" xlink:href="#move0111" transform="rotate(-90, 13.5, 13.5)"/>
    </symbol>

    <symbol id="move1110" viewBox="0 0 27 27">
      <use width="27" height="27" xlink:href="#move0111" transform="rotate(180, 13.5, 13.5)"/>
    </symbol>

    <symbol id="move0011" viewBox="0 0 27 27" >
      <path fill="#000000" d="M5,5h17v17h-17v-11h1v2h7v-2h1v2h7v-7h-7v2h-1v-2h-7v2h-1v-3M6,14v7h7v-7h-7M14,14v7h7v-7z"/>
      <path fill="#ff0219" d="M16,7h1v1h1v1h1v1h-1v1h-1v1h-1v-2h-12v-1h12z"/>
      <path fill="#777777" d="M6,14h7v7h-7v-7M14,14h7v7h-7z"/>
    </symbol>

    <symbol id="move1100" viewBox="0 0 27 27">
      <use width="27" height="27" xlink:href="#move0011" transform="rotate(180, 13.5, 13.5)"/>
    </symbol>

    <symbol id="move1010" viewBox="0 0 27 27">
      <use width="27" height="27" xlink:href="#move0011" transform="rotate(90, 13.5, 13.5)"/>
    </symbol>

    <symbol id="move0101" viewBox="0 0 27 27">
      <use width="27" height="27" xlink:href="#move0011" transform="rotate(-90, 13.5, 13.5)"/>
    </symbol>

    <symbol id="move1001" viewBox="0 0 27 27" >
      <path fill="#ff0219" d="M17,4h1v5h6v-2h1v1h1v1h1v1h-1v1h-1v1h-1v-2h-7v-6M2,15h1v2h7v6h-1v-5h-6v2h-1v-1h-1v-1h-1v-1h1v-1h1z"/>
      <path fill="#000000" d="M5,5h11v1h-2v7h7v-2h1v11h-11v-1h2v-7h-7v2h-1v-11M19,5h3v3h-1v-2h-2v-1M6,6v7h7v-7h-7M14,14v7h7v-7h-7M5,19h1v2h2v1h-3z"/>
      <path fill="#777777" d="M6,6h7v7h-7v-7M14,14h7v7h-7z"/>
    </symbol>

    <symbol id="move0110" viewBox="0 0 27 27">
      <use width="27" height="27" xlink:href="#move1001" transform="rotate(90, 13.5, 13.5)"/>
    </symbol>

    <symbol id="move0001wl" viewBox="0 0 27 40">
      <use xlink:href="#move0001" width="27" height="27" y="0" x="0"/>
      <text x="7" y="40" class="meta">h1</text>
    </symbol>

    <symbol id="move0011wl" viewBox="0 0 27 40">
      <use xlink:href="#move0011" width="27" height="27" y="0" x="0"/>
      <text x="7" y="40" class="meta">h1</text>
    </symbol>

    <symbol id="move0010wl" viewBox="0 0 27 40">
      <use xlink:href="#move0010" width="27" height="27" y="0" x="0"/>
      <text x="7" y="40" class="meta">v1</text>
    </symbol>

    <symbol id="move1001wl_right" viewBox="0 0 27 40">
      <use xlink:href="#move1001" width="27" height="27" y="0" x="0"/>
      <text x="7" y="40" class="meta">h1</text>
    </symbol>

    <symbol id="move1001wl_left" viewBox="0 0 27 40">
      <use xlink:href="#move1001" width="27" height="27" y="0" x="0"/>
      <text x="7" y="40" class="meta">h-1</text>
    </symbol>

    <symbol id="move1010wl" viewBox="0 0 27 40">
      <use xlink:href="#move1010" width="27" height="27" y="0" x="0"/>
      <text x="7" y="40" class="meta">v1</text>
    </symbol>

    <symbol id="move1000wl" viewBox="0 0 27 40">
      <use xlink:href="#move1000" width="27" height="27" y="0" x="0"/>
      <text x="7" y="40" class="meta">h-1</text>
    </symbol>

    <symbol id="move0100wl" viewBox="0 0 27 40">
      <use xlink:href="#move0100" width="27" height="27" y="0" x="0"/>
      <text x="7" y="40" class="meta">v-1</text>
    </symbol>

    <symbol id="move0101wl" viewBox="0 0 27 40">
      <use xlink:href="#move0101" width="27" height="27" y="0" x="0"/>
      <text x="7" y="40" class="meta">v-1</text>
    </symbol>

    <symbol id="move1110wl" viewBox="0 0 27 40">
      <use xlink:href="#move1110" width="27" height="27" y="0" x="0"/>
      <text x="7" y="40" class="meta">v1</text>
    </symbol>
  </defs>

  <use xlink:href="#move1000" width="54" height="54" y="0" x="0"/>
  <use xlink:href="#move0100" width="54" height="54" y="0" x="54"/>
  <use xlink:href="#move0010" width="54" height="54" y="0" x="108"/>
  <use xlink:href="#move0001" width="54" height="54" y="0" x="162"/>

  <use xlink:href="#move0111" width="54" height="54" y="54" x="0"/>
  <use xlink:href="#move1011" width="54" height="54" y="54" x="54"/>
  <use xlink:href="#move1101" width="54" height="54" y="54" x="108"/>
  <use xlink:href="#move1110" width="54" height="54" y="54" x="162"/>

  <use xlink:href="#move0011" width="54" height="54" y="108" x="0"/>
  <use xlink:href="#move1100" width="54" height="54" y="108" x="54"/>
  <use xlink:href="#move1010" width="54" height="54" y="108" x="108"/>
  <use xlink:href="#move0101" width="54" height="54" y="108" x="162"/>

  <use xlink:href="#move1001" width="54" height="54" y="162" x="54"/>
  <use xlink:href="#move0110" width="54" height="54" y="162" x="108"/>
</svg>
