<svg width="216" height="216" xmlns="http://www.w3.org/2000/svg" xmlns:xlink="http://www.w3.org/1999/xlink" version="1.1">
  <g class="steps">
    <use width="54" height="54" xlink:href="moves.svg#one" transform="rotate(180, 27, 27)"/>
    <use width="54" height="54" xlink:href="moves.svg#wall" transform="translate(54)"/>
    <use width="54" height="54" xlink:href="moves.svg#one" transform="translate(108) rotate(270, 27, 27)"/>

    <use width="54" height="54" xlink:href="moves.svg#turn" transform="translate(108, 54)"/>
    <use width="54" height="54" xlink:href="moves.svg#one" transform="translate(162, 54) rotate(270, 27, 27)"/>
    <use width="54" height="54" xlink:href="moves.svg#wall" transform="translate(162, 108) rotate(90, 27, 27)"/>

    <use width="54" height="54" xlink:href="moves.svg#one" transform="translate(162, 162)"/>
    <use width="54" height="54" xlink:href="moves.svg#one" transform="translate(108, 162) rotate(90, 27, 27)"/>

    <use width="54" height="54" xlink:href="moves.svg#wall" transform="translate(108, 108) rotate(270, 27, 27)"/>

    <use width="54" height="54" xlink:href="moves.svg#three" transform="translate(54, 54) rotate(180, 27, 27)"/>
    <use width="54" height="54" xlink:href="moves.svg#wall" transform="translate(54, 108) rotate(90, 27, 27)"/>
    <use width="54" height="54" xlink:href="moves.svg#one" transform="translate(54, 162)"/>
    <use width="54" height="54" xlink:href="moves.svg#one" transform="translate(0, 162) rotate(90, 27, 27)"/>
    <use width="54" height="54" xlink:href="moves.svg#wall" transform="translate(0, 108) rotate(270, 27, 27)"/>
    <use width="54" height="54" xlink:href="moves.svg#wall" transform="translate(0, 54) rotate(270, 27, 27)"/>
  </g>

</svg>
