<svg width="216" height="216" xmlns="http://www.w3.org/2000/svg" xmlns:xlink="http://www.w3.org/1999/xlink" version="1.1">

  <use xlink:href="n-big.svg#pixels" width="216" height="216" y="0" x="0"/>

  <use xlink:href="moves.svg#move0001" width="54" height="54" y="0" x="0"/>
  <use xlink:href="moves.svg#move0011" width="54" height="54" y="0" x="54"/>
  <use xlink:href="moves.svg#move0010" width="54" height="54" y="0" x="108"/>
  <use xlink:href="moves.svg#move1001" width="54" height="54" y="54" x="108"/>
  <use xlink:href="moves.svg#move0010" width="54" height="54" y="54" x="162"/>
  <use xlink:href="moves.svg#move1010" width="54" height="54" y="108" x="162"/>
  <use xlink:href="moves.svg#move1000" width="54" height="54" y="162" x="162"/>
  <use xlink:href="moves.svg#move0100" width="54" height="54" y="162" x="108"/>
  <use xlink:href="moves.svg#move0101" width="54" height="54" y="108" x="108"/>
  <!-- reusing the move1001 -->
  <use xlink:href="moves.svg#move1110" width="54" height="54" y="54" x="54"/>
  <use xlink:href="moves.svg#move1010" width="54" height="54" y="108" x="54"/>
  <use xlink:href="moves.svg#move1000" width="54" height="54" y="162" x="54"/>
  <use xlink:href="moves.svg#move0100" width="54" height="54" y="162" x="0"/>
  <use xlink:href="moves.svg#move0101" width="54" height="54" y="108" x="0"/>
  <use xlink:href="moves.svg#move0101" width="54" height="54" y="54" x="0"/>
</svg>
