<?xml-stylesheet href="/all.css" type="text/css"?>
<svg width="1024" height="216" xmlns="http://www.w3.org/2000/svg" xmlns:xlink="http://www.w3.org/1999/xlink" version="1.1">

  <use xlink:href="moves.svg#move0011" width="27" height="27" y="0" x="0"/>
  <use xlink:href="moves.svg#move0010" width="27" height="27" y="0" x="0"/>
  <use xlink:href="moves.svg#move1001" width="27" height="27" y="0" x="0"/>
  <use xlink:href="moves.svg#move0010" width="27" height="27" y="0" x="0"/>
  <use xlink:href="moves.svg#move1010" width="27" height="27" y="0" x="0"/>
  <use xlink:href="moves.svg#move1000" width="27" height="27" y="0" x="0"/>
  <use xlink:href="moves.svg#move0100" width="27" height="27" y="0" x="0"/>
  <use xlink:href="moves.svg#move0101" width="27" height="27" y="0" x="0"/>
  <use xlink:href="moves.svg#move1001" width="27" height="27" y="0" x="0"/>
  <use xlink:href="moves.svg#move1110" width="27" height="27" y="0" x="0"/>
  <use xlink:href="moves.svg#move1010" width="27" height="27" y="0" x="0"/>
  <use xlink:href="moves.svg#move1000" width="27" height="27" y="0" x="0"/>
  <use xlink:href="moves.svg#move0100" width="27" height="27" y="0" x="0"/>
  <use xlink:href="moves.svg#move0101" width="27" height="27" y="0" x="0"/>
  <use xlink:href="moves.svg#move0101" width="27" height="27" y="0" x="0"/>
</svg>
